<?xml version="1.0" encoding="UTF-8"?>
<svg viewBox="0 0 800 600" xmlns="http://www.w3.org/2000/svg">
 <ellipse cx="404.5" cy="287" rx="228.5" ry="236" fill="#543019" stroke-width="null"/>
 <path transform="rotate(18.886 382.11 262.61)" d="m440.97 439.1c4.3251-0.82214 8.6486-1.261 13.148-1.261 10.344 0 20.277 2.2461 29.102 5.972 8.5308 3.6706 18.233 5.8068 28.283 5.8068 9.934 0 19.634-2.1362 28.166-5.8068 6.0768-2.5749 12.564-4.602 19.517-5.4234-3.7396-106.5-122.19-201.5-127.8-206.43-5.8437-4.9309-11.22-15.723-7.4211-28.433l28.283-87.765c5.0251-13.586 2.513-31.775-4.442-37.253-3.9727-2.9584-12.446-5.0949-18.114 0.98608l-76.61 81.41c-16.771 16.708-2.746 34.568-3.0969 34.458-26.005-8.7652-56.566-2.9031-75.148 4.2739l-63.228 30.076c-6.2526 2.4651-8.9986 9.9708-5.7259 15.012 10.517 15.723 45.345 15.832 117.86 8.4363 117.22-11.779 117.34 164.24 117.22 185.94" fill="#fff"/>
</svg>
